<?xml version="1.0" encoding="iso-8859-1"?>
<!-- Generator: Adobe Illustrator 19.0.0, SVG Export Plug-In . SVG Version: 6.00 Build 0)  -->
<svg version="1.1" id="Layer_1" xmlns="http://www.w3.org/2000/svg" xmlns:xlink="http://www.w3.org/1999/xlink" x="0px" y="0px"
	 viewBox="0 0 511.994 511.994" style="enable-background:new 0 0 511.994 511.994;" xml:space="preserve">
<g>
	<g>
		<path d="M397.8,200.146l-38.841-1.628l15.032,12.02l-62.214-25.748c-17.964-7.438-35.647,11.421-27.047,28.877l50.951,103.406
			c5.162,10.475,17.837,14.777,28.307,9.619c10.473-5.161,14.779-17.835,9.619-28.307l-26.151-53.069
			c27.309,11.301,25.7,10.688,27.245,11.142l19.907,43.829c11.432-0.065,20.64-9.047,21.113-20.33l2.417-57.688
			C418.632,210.54,409.526,200.637,397.8,200.146z"/>
	</g>
</g>
<g>
	<g>
		<path d="M267.228,222.289c-5.049-10.243-9.156-16.686-8.663-27.951c-7.683-0.153-15.211,2.736-20.678,6.687l-102.259,73.86H23.998
			C10.745,274.884,0,285.628,0,298.882s10.745,23.997,23.998,23.997H143.39c5.045,0,9.961-1.589,14.05-4.544l61.498-44.419
			l79.686,12.092L267.228,222.289z"/>
	</g>
</g>
<g>
	<g>
		<circle cx="471.817" cy="244.505" r="40.178"/>
	</g>
</g>
<g>
</g>
<g>
</g>
<g>
</g>
<g>
</g>
<g>
</g>
<g>
</g>
<g>
</g>
<g>
</g>
<g>
</g>
<g>
</g>
<g>
</g>
<g>
</g>
<g>
</g>
<g>
</g>
<g>
</g>
</svg>
